 http://www.grinshare.com/img/8FERPY.png
 
http://www.grinshare.com/img/6F5HCO.png
 
http://www.grinshare.com/img/V72VHD.png
 
http://www.grinshare.com/img/IH3IG7.png
 
http://www.grinshare.com/img/POJHAB.png


Thomas and Robin are deeply in love and ready to spend the rest of their lives together. Nothing will stop this wedding from happening, not even overprotective feuding mothers, a missing father, and a mischievous teenage sister. However, this couple is about to face their biggest challenge. While Robin believes she is marrying the perfect man, Thomas is consumed with guilt about a past infidelity. The not-so-perfect couple s love for each other is put to the test in this irresistibly genuine comedy about love, commitment and the power of forgiveness. 
 
http://www.imdb.com/title/tt1772940/

Format;AVI

File Size:912mb

Video
ID : 0
Format : MPEG-4 Visual
Format profile : Advanced Simple@L5
Format settings, BVOP : Yes
Format settings, QPel : No
Format settings, GMC : No warppoints
Format settings, Matrix : Custom
Codec ID : XVID
Codec ID/Hint : XviD
Duration : 1h 20mn
Bit rate : 1 134 Kbps
Width : 680 pixels
Height : 372 pixels
Display aspect ratio : 16:9
Frame rate : 29.970 fps
Color space : YUV
Chroma subsampling : 4:2:0
Bit depth : 8 bits
Scan type : Progressive
Bits/(Pixel*Frame) : 0.150
Stream size : 654 MiB (71%)
Writing library : XviD 1.2.1 (UTC 2008-12-04)

Audio
ID : 1
Format : AC-3
Format/Info : Audio Coding 3
Mode extension : CM (complete main)
Codec ID : 2000
Duration : 1h 20mn
Bit rate mode : Constant
Bit rate : 448 Kbps
Channel(s) : 5 channels
Channel positions : Front: L C R, Side: L R
Sampling rate : 48.0 KHz
Bit depth : 16 bits
Stream size : 258 MiB (28%)
Alignment : Aligned on interleaves
Interleave, duration : 33 ms (1.00 video frame)
Interleave, preload duration : 512 ms


Duration:1:21

Release Date:2011

Language:English